<svg xmlns="http://www.w3.org/2000/svg" viewBox="0 0 24 24" fill="currentColor" width="24" height="24">
  <path d="M21.327 8.566c0-4.339-2.843-5.61-2.843-5.61-1.357-.682-2.76-.955-4.22-1.033-.164-.014-.302-.12-.366-.272-.065-.153-.042-.33.058-.458 1.16-1.467 1.552-3.379 1.552-3.379-.169-.372-.41-.698-.71-.963-.298-.266-.637-.467-1.008-.599-.303-.108-.625-.163-.945-.163-.122 0-.242.009-.36.025-.117.016-.23.04-.34.07-.11.03-.214.067-.313.11-.098.042-.19.09-.273.143-.083.053-.155.11-.216.172-.061.061-.11.127-.146.195-.037.068-.06.138-.075.21-.015.072-.022.145-.022.218 0 .164.029.327.086.489.057.161.14.318.247.469.107.151.237.294.389.429.152.135.325.26.519.377.194.117.408.224.642.322.234.098.487.185.759.262.272.077.563.143.872.199.31.056.637.101.972.137.335.036.687.062 1.055.078.368.016.751.023 1.148.023 3.619 0 5.339-1.544 6.114-2.304.272-.276.455-.59.548-.94.093-.35.093-.723 0-1.118-.093-.396-.276-.71-.548-.987-.775-.76-2.495-2.304-6.114-2.304-.397 0-.78.007-1.148.023-.368.016-.72.042-1.055.078-.335.036-.662.081-.972.137-.272.077-.525.164-.759.262-.234.098-.448.205-.642.322-.194.117-.367.242-.519.377-.152.135-.282.278-.389.429-.107.151-.19.308-.247.469-.057.161-.086.325-.086.489 0 .073.007.146.022.218.015.072.038.142.075.21.036.068.085.134.146.195.061.062.133.119.216.172.083.053.175.08.273.143.099.043.203.08.313.11.11.03.223.054.34.07.118.016.238.025.36.025.32 0 .642-.055.945-.163.371-.132.71-.333 1.008-.599.3-.265.541-.591.71-.963 0 0 .392 1.912 1.552 3.379.1.128.123.305.058.458-.064.152-.202.258-.366.272-1.46.078-2.863.351-4.22 1.033 0 0-2.843 1.271-2.843 5.61h6.673v1.788h-.024c.146 1.382.91 2.665 2.07 3.597 1.16.932 2.705 1.544 4.363 1.544 1.658 0 3.203-.612 4.363-1.544 1.16-.932 1.924-2.215 2.07-3.597h-.024v-1.788h6.673c0-4.339-2.843-5.61-2.843-5.61zM11.998 20.848c-1.466 0-2.828-.505-3.881-1.354-1.053-.85-1.727-1.987-1.927-3.354h9.616c-.2 1.367-.874 2.504-1.927 3.354-1.053.85-2.415 1.354-3.881 1.354zm-4.725-5.242H4.578v-6.06h2.695v6.06zm9.454 0h-2.695v-6.06h2.695v6.06z"/>
</svg>
